<?xml version="1.0" encoding="UTF-8"?>
<svg id="Layer_1" data-name="Layer 1" xmlns="http://www.w3.org/2000/svg" viewBox="0 0 360 360">
  <path fill="hsl(0, 50%, 90%)" d="M180,0C80.5887,0,0,80.5887,0,180s80.5887,180,180,180,180-80.5887,180-180S279.4113,0,180,0ZM260.13,322.63c-9.32,5.2-19.62,9.21-30.88,12.03-11.27,2.81-23.51,4.22-36.72,4.22-21.02,0-39.98-4.33-56.88-13-16.9-8.66-30.28-21.45-40.14-38.35-9.86-16.9-14.78-37.48-14.78-61.75,0-18.2,2.97-34.34,8.93-48.42,5.96-14.08,14.19-25.95,24.7-35.59,10.51-9.64,22.59-16.9,36.24-21.77.15-.05.31-.11.46-.16,1.65-.59,3.32-1.13,5-1.65,12.04-3.67,24.73-5.51,38.09-5.51,3.73,0,7.38.13,10.97.4,1.68.13,3.35.28,5,.47,6.06.67,11.9,1.74,17.51,3.2,10.4,2.71,20.36,6.66,29.9,11.86l1.3,42.57h-8.78l-13.65-25.67c-2.17-4.33-4.5-8.23-6.9901-11.7-2.49-3.47-5.68-5.96-9.58-7.48-2.95-1.41-6.19-2.4399-9.71-3.09-1.61-.29-3.27-.51-5-.63-1.45-.12-2.94-.18-4.47-.18-12.79,0-24.4301,3.25-34.94,9.75-3.44,2.13-6.66,4.72-9.65,7.77l-5,5.8c-3.99,5.26-7.51,11.52-10.53,18.77-6.29,15.06-9.4301,35.59-9.4301,61.59,0,11.06.54,21.14,1.65,30.25l-9.62,1.92v16.25h12.85c1.14,4.7,2.5,9.03,4.06,13,5.96,15.17,14.02,25.95,24.21,32.34,10.18,6.39,21.67,9.59,34.45,9.59,5.85,0,10.61-.43,14.3-1.3,3.68-.87,7.36-2.06,11.05-3.58,4.33-1.73,7.69-4.27,10.08-7.6299,2.38-3.36,4.43-7.21,6.17-11.54l12.35-29.58h8.78l-1.3,46.8ZM219.43,259.65l13.97,2.73v7.15h-105.28v-7.15l5.3-1.06,4.91-.9901,3.42-.68c9.54-2.04,14.31-7.61,14.31-16.69v-95.46c3.69-4.59,7.79-8.3,12.28-11.07,9.66-5.97,20.53-9,32.31-9,1.54,0,3.03.06,4.47.19v115.34c0,9.31,4.77,14.88,14.31,16.69ZM270.53,101.91l-11.92-25.21c-3.41-7.04-6.82-12.4901-10.22-16.36-3.41-3.86-8.75-5.79-16.01-5.79h-27.26v53.53c-3.6-.2599-7.26-.39-10.97-.39-13.2401,0-26.02,1.77-38.09,5.29v-10.73c0-15.9-.12-31.8-.34-47.7h-26.92c-7.27,0-12.6,1.93-16.01,5.79-3.41,3.87-6.81,9.32-10.22,16.36l-11.92,25.21h-9.54l1.7-57.58h195.56l1.7,57.58h-9.54Z"/>
</svg>